PathFileType	4	(x/y/z)	S02_PSF_T01
DataRate	CameraRate	NumFrames	NumMarkers	Units	OrigDataRate	OrigDataStartFrame	OrigNumFrames
240	240	9	51	mm	240	150	398
Frame#	Time	Sternum			R.Acromium			L.Acromium			Top.Head			R.ASIS			L.ASIS			R.PSIS			L.PSIS			R.Great.Tro			L.Great.Tro			R.Iliac.Crest			L.Iliac.Crest			V.Sacral			R.Thigh.Upper.Post			R.Thigh.Lower.Ant			R.Thigh.Lower.Post			R.Thigh.Upper.Ant			R.Knee.Lat			R.Knee.Med			R.Shank.Upper.Post			R.Shank.Lower.Ant			R.Shank.Lower.Post			R.Shank.Upper.Ant			R.Ankle.Lat			R.Ankle.Med			R.Heel.Upper			R.Heel.Med			R.Heel.Lat			R.Toe.Lat			R.Toe.Med			R.Toe.Tip			L.Thigh.Upper.Post			L.Thigh.Lower.Ant			L.Thigh.Lower.Post			L.Thigh.Upper.Ant			L.Knee.Lat			L.Knee.Med			L.Shank.Upper.Post			L.Shank.Lower.Ant			L.Shank.Lower.Post			L.Shank.Upper.Ant			L.Ankle.Lat			L.Ankle.Med			L.Heel.Upper			L.Heel.Med			L.Heel.Lat			L.Toe.Lat			L.Toe.Med			L.Toe.Tip			Cervical.Spine			Back			
		X1	Y1	Z1	X2	Y2	Z2	X3	Y3	Z3	X4	Y4	Z4	X5	Y5	Z5	X6	Y6	Z6	X7	Y7	Z7	X8	Y8	Z8	X9	Y9	Z9	X10	Y10	Z10	X11	Y11	Z11	X12	Y12	Z12	X13	Y13	Z13	X14	Y14	Z14	X15	Y15	Z15	X16	Y16	Z16	X17	Y17	Z17	X18	Y18	Z18	X19	Y19	Z19	X20	Y20	Z20	X21	Y21	Z21	X22	Y22	Z22	X23	Y23	Z23	X24	Y24	Z24	X25	Y25	Z25	X26	Y26	Z26	X27	Y27	Z27	X28	Y28	Z28	X29	Y29	Z29	X30	Y30	Z30	X31	Y31	Z31	X32	Y32	Z32	X33	Y33	Z33	X34	Y34	Z34	X35	Y35	Z35	X36	Y36	Z36	X37	Y37	Z37	X38	Y38	Z38	X39	Y39	Z39	X40	Y40	Z40	X41	Y41	Z41	X42	Y42	Z42	X43	Y43	Z43	X44	Y44	Z44	X45	Y45	Z45	X46	Y46	Z46	X47	Y47	Z47	X48	Y48	Z48	X49	Y49	Z49	X50	Y50	Z50	X51	Y51	Z51	

150	0.62083	-650.46	1066.4	313.28	-759.77	1299.7	466.22	-759.49	1308.3	173.52	-746.3	1595	335.45	-667.57	911.15	405.03	-687.67	889.56	197.75	-887.11	931.3	382.46	-899.74	932.01	309.04	-692.77	784.68	503.49	-824.97	781.59	127.35	-765.69	946.38	480.37	-816.71	934.74	147.9	-916.88	882.53	344.42	-622.68	607.65	473.15	-551.21	558.29	419.55	-607.23	521.47	449.03	-571.57	642.98	442.11	-564.2	458.36	422.81	-598.76	446.82	284.39	-616.95	242.84	412.97	-538.54	172.3	379.03	-603.12	171.43	398.99	-546.03	240.09	397.86	-581.73	87.014	379.66	-581.52	101.43	298.18	-646.56	71.771	328.33	-633.91	39.444	300.86	-639.83	41.22	364.77	-475.28	40.884	394.26	-450.47	34.287	286.12	-399.23	63.856	336.62	-876.04	578.15	163.99	-810.78	490.02	144.65	-884.23	488.64	180.22	-810.4	584.87	132.49	-846.06	414.36	152.62	-816.53	399.16	287.74	-1021.2	347.6	179.43	-1034.4	237.47	184.74	-1074.6	298.85	199.17	-986.42	294.4	166.49	-1135.5	193.13	210.29	-1120.4	188.73	290.27	-1194.2	218.44	247.07	-1203.8	203.91	286.26	-1216.6	193.85	226.19	-1128.1	57.022	208.28	-1095.7	68.386	312.34	-1049.6	40.151	269.95	-840.94	1368	324.52	-914.66	1115.3	320.67
151	0.625	-644.5	1067	313.69	-753.71	1300.1	466.82	-753.86	1308.8	174.2	-740.52	1595.5	336.29	-661.52	911.9	405.58	-681.52	889.93	198.47	-881.08	931.79	382.55	-893.57	932.25	309.03	-686.43	785.72	503.7	-817.81	781.03	127.54	-759.8	947.09	480.7	-810.36	935.1	148.12	-910.76	882.89	344.58	-616.99	608.27	473.36	-545.82	558.68	419.62	-601.79	522.01	449.38	-565.95	643.44	442.09	-559.18	458.41	422.82	-593.61	447.28	284.53	-614.28	243.23	413.33	-536.82	171.83	378.9	-601.32	171.68	399.23	-543.45	239.69	397.82	-581.23	87.067	379.69	-581.08	101.46	298.3	-646.36	71.97	328.38	-633.81	39.614	300.92	-639.69	41.383	364.83	-475.1	40.695	394.3	-450.3	33.844	286.03	-398.91	63.164	336.55	-867.23	577.18	163.21	-801	489.8	143.28	-874.37	487.46	178.95	-801.68	584.73	131.65	-835.59	413.93	150.84	-805.02	398.16	285.68	-1010.9	349.54	178.04	-1025.8	239.61	183.34	-1065	301.54	197.93	-977.39	295.85	164.94	-1127.3	196.85	208.93	-1112	192.06	288.93	-1184.4	224.4	245.57	-1194.6	210.5	284.89	-1207.9	200.65	224.94	-1124.8	60.053	207.65	-1091.4	70.706	311.39	-1047.1	39.444	268.98	-835.17	1368.4	325.34	-908.72	1115.7	321.31
152	0.62917	-638.59	1067.7	314.08	-747.68	1300.5	467.4	-748.27	1309.4	174.85	-734.76	1596	337.11	-655.52	912.69	406.15	-675.43	890.34	199.18	-875.11	932.33	382.62	-887.49	932.52	309.01	-680.19	786.78	503.92	-810.7	780.54	127.75	-753.97	947.83	481.01	-804.1	935.46	148.36	-904.7	883.29	344.72	-611.48	608.83	473.61	-540.62	558.98	419.72	-596.57	522.49	449.75	-560.48	643.82	442.11	-554.44	458.38	422.91	-588.58	447.66	284.7	-611.8	243.59	413.65	-535.24	171.36	378.82	-599.67	171.91	399.46	-541.06	239.29	397.83	-580.79	87.117	379.72	-580.7	101.49	298.42	-646.21	72.137	328.43	-633.72	39.762	300.97	-639.58	41.516	364.88	-474.96	40.558	394.35	-450.16	33.505	285.96	-398.65	62.604	336.5	-858.42	576.3	162.43	-791.21	489.69	141.91	-864.47	486.37	177.68	-792.97	584.68	130.81	-825.03	413.59	149.08	-793.39	397.29	283.65	-1000.4	351.48	176.66	-1016.8	241.77	181.98	-1055.2	304.22	196.7	-968.17	297.35	163.39	-1118.7	200.54	207.61	-1103.3	195.33	287.61	-1174.2	230.24	244.12	-1184.9	216.93	283.56	-1198.8	207.34	223.74	-1121.1	63.21	206.98	-1086.6	73.065	310.37	-1044.1	38.783	267.91	-829.42	1368.8	326.14	-902.81	1116.1	321.93
153	0.63333	-632.72	1068.4	314.46	-741.68	1301	467.96	-742.72	1310	175.5	-729	1596.6	337.92	-649.56	913.53	406.7	-669.39	890.79	199.87	-869.21	932.9	382.67	-881.47	932.84	308.99	-674.05	787.83	504.14	-803.66	780.13	127.96	-748.21	948.61	481.29	-797.94	935.81	148.6	-898.7	883.72	344.85	-606.16	609.32	473.88	-535.62	559.18	419.86	-591.59	522.9	450.11	-555.15	644.1	442.19	-550	458.26	423.07	-583.71	447.95	284.88	-609.5	243.91	413.94	-533.79	170.9	378.77	-598.16	172.11	399.66	-538.84	238.88	397.86	-580.41	87.165	379.75	-580.36	101.53	298.55	-646.09	72.275	328.47	-633.65	39.889	301.01	-639.48	41.623	364.93	-474.85	40.464	394.4	-450.05	33.255	285.9	-398.44	62.156	336.47	-849.6	575.51	161.64	-781.4	489.69	140.54	-854.54	485.38	176.43	-784.26	584.73	129.96	-814.38	413.35	147.34	-781.66	396.59	281.67	-989.7	353.41	175.28	-1007.7	243.93	180.65	-1045.1	306.86	195.5	-958.8	298.9	161.85	-1109.9	204.19	206.33	-1094.3	198.51	286.32	-1163.8	235.9	242.73	-1174.9	223.14	282.28	-1189.4	213.87	222.6	-1117	66.467	206.27	-1081.4	75.437	309.29	-1040.8	38.188	266.72	-823.7	1369.3	326.92	-896.94	1116.5	322.54
154	0.6375	-626.9	1069.1	314.82	-735.71	1301.5	468.49	-737.21	1310.6	176.12	-723.26	1597.1	338.72	-643.64	914.4	407.25	-663.39	891.27	200.53	-863.37	933.51	382.71	-875.53	933.19	308.97	-668.01	788.88	504.38	-796.69	779.8	128.19	-742.51	949.42	481.56	-791.88	936.16	148.85	-892.77	884.19	344.98	-601.03	609.74	474.16	-530.82	559.28	420.03	-586.85	523.23	450.47	-549.98	644.27	442.32	-545.84	458.06	423.29	-579.04	448.16	285.08	-607.39	244.2	414.19	-532.47	170.44	378.77	-596.79	172.3	399.83	-536.8	238.46	397.94	-580.08	87.207	379.78	-580.06	101.58	298.69	-646	72.387	328.51	-633.58	39.997	301.05	-639.4	41.708	364.98	-474.76	40.405	394.46	-449.96	33.076	285.86	-398.28	61.805	336.46	-840.8	574.82	160.86	-771.59	489.82	139.19	-844.58	484.51	175.2	-775.57	584.89	129.12	-803.67	413.23	145.62	-769.87	396.06	279.76	-978.85	355.35	173.92	-998.32	246.09	179.36	-1034.8	309.48	194.32	-949.27	300.49	160.33	-1100.8	207.77	205.09	-1085	201.61	285.06	-1153.1	241.36	241.42	-1164.5	229.1	281.07	-1179.6	220.2	221.53	-1112.4	69.794	205.5	-1075.7	77.799	308.14	-1037.1	37.68	265.41	-818.02	1369.8	327.68	-891.1	1117	323.15
155	0.64167	-621.13	1069.9	315.16	-729.76	1302	468.99	-731.75	1311.2	176.71	-717.52	1597.7	339.5	-637.78	915.29	407.79	-657.45	891.78	201.15	-857.58	934.16	382.75	-869.67	933.59	308.94	-662.06	789.91	504.63	-789.81	779.57	128.43	-736.85	950.26	481.8	-785.93	936.51	149.11	-886.91	884.7	345.1	-596.1	610.07	474.46	-526.22	559.26	420.24	-582.36	523.49	450.82	-544.96	644.34	442.5	-541.97	457.79	423.57	-574.61	448.28	285.31	-605.45	244.45	414.39	-531.28	169.99	378.81	-595.57	172.46	399.96	-534.93	238.04	398.04	-579.8	87.245	379.81	-579.8	101.62	298.82	-645.94	72.477	328.54	-633.53	40.09	301.08	-639.34	41.775	365.02	-474.69	40.373	394.51	-449.89	32.955	285.82	-398.15	61.534	336.45	-832	574.24	160.11	-761.78	490.07	137.86	-834.6	483.76	174.01	-766.9	585.16	128.3	-792.91	413.23	143.94	-758.03	395.72	277.93	-967.87	357.28	172.6	-988.75	248.25	178.12	-1024.4	312.06	193.19	-939.6	302.12	158.83	-1091.5	211.28	203.91	-1075.5	204.59	283.85	-1142.1	246.59	240.21	-1153.9	234.77	279.95	-1169.6	226.27	220.55	-1107.4	73.159	204.68	-1069.5	80.128	306.93	-1032.8	37.283	264	-812.36	1370.3	328.41	-885.3	1117.6	323.75
156	0.64583	-615.4	1070.6	315.47	-723.83	1302.5	469.47	-726.34	1311.9	177.28	-711.8	1598.4	340.27	-631.96	916.21	408.31	-651.56	892.33	201.73	-851.86	934.84	382.77	-863.87	934.03	308.92	-656.21	790.91	504.9	-783.01	779.45	128.69	-731.25	951.11	482.03	-780.07	936.85	149.37	-881.11	885.24	345.23	-591.37	610.33	474.76	-521.83	559.14	420.48	-578.1	523.67	451.15	-540.1	644.31	442.73	-538.36	457.45	423.89	-570.46	448.31	285.55	-603.68	244.68	414.55	-530.2	169.54	378.88	-594.47	172.61	400.07	-533.22	237.61	398.17	-579.57	87.278	379.84	-579.58	101.66	298.94	-645.89	72.549	328.57	-633.48	40.168	301.11	-639.28	41.827	365.05	-474.64	40.362	394.56	-449.83	32.879	285.79	-398.05	61.33	336.46	-823.2	573.77	159.37	-751.98	490.46	136.56	-824.61	483.15	172.87	-758.25	585.55	127.49	-782.1	413.37	142.29	-746.17	395.57	276.19	-956.77	359.2	171.32	-978.98	250.4	176.92	-1013.7	314.59	192.1	-929.79	303.79	157.35	-1081.9	214.7	202.8	-1065.7	207.46	282.68	-1131	251.56	239.11	-1142.9	240.11	278.93	-1159.3	232.06	219.68	-1101.8	76.532	203.81	-1062.8	82.402	305.65	-1028.1	37.019	262.46	-806.74	1370.9	329.13	-879.54	1118.2	324.35
157	0.65	-609.72	1071.4	315.76	-717.92	1303.1	469.93	-720.97	1312.6	177.82	-706.08	1599	341.02	-626.19	917.14	408.81	-645.72	892.91	202.26	-846.2	935.56	382.8	-858.15	934.52	308.91	-650.45	791.89	505.2	-776.32	779.44	128.97	-725.69	951.99	482.25	-774.31	937.2	149.64	-875.38	885.82	345.35	-586.83	610.52	475.07	-517.63	558.92	420.75	-574.09	523.78	451.46	-535.39	644.18	443	-535	457.06	424.24	-566.6	448.27	285.81	-602.07	244.88	414.66	-529.23	169.09	378.98	-593.5	172.74	400.13	-531.66	237.19	398.32	-579.36	87.306	379.86	-579.38	101.69	299.06	-645.86	72.605	328.59	-633.43	40.235	301.12	-639.24	41.868	365.08	-474.6	40.366	394.61	-449.79	32.838	285.76	-397.98	61.18	336.46	-814.4	573.41	158.66	-742.2	490.98	135.29	-814.6	482.67	171.78	-749.61	586.06	126.7	-771.25	413.64	140.69	-734.33	395.62	274.54	-945.57	361.12	170.09	-969.03	252.53	175.76	-1003	317.06	191.08	-919.85	305.5	155.91	-1072.2	218.01	201.76	-1055.7	210.2	281.56	-1119.7	256.23	238.15	-1131.8	245.09	278.04	-1148.7	237.51	218.92	-1095.6	79.879	202.87	-1055.5	84.601	304.32	-1022.7	36.907	260.81	-801.15	1371.6	329.83	-873.82	1118.8	324.94
158	0.65417	-604.08	1072.2	316.01	-712.05	1303.7	470.36	-715.66	1313.4	178.33	-700.38	1599.7	341.74	-620.48	918.08	409.28	-639.93	893.54	202.74	-840.58	936.32	382.83	-852.48	935.06	308.91	-644.78	792.83	505.51	-769.74	779.53	129.26	-720.18	952.89	482.46	-768.65	937.55	149.91	-869.7	886.45	345.49	-582.48	610.64	475.37	-513.62	558.6	421.03	-570.3	523.83	451.75	-530.83	643.96	443.3	-531.87	456.61	424.61	-563.06	448.16	286.09	-600.61	245.06	414.72	-528.36	168.66	379.11	-592.64	172.85	400.17	-530.24	236.76	398.48	-579.19	87.331	379.88	-579.21	101.73	299.17	-645.85	72.647	328.61	-633.39	40.293	301.13	-639.21	41.901	365.1	-474.58	40.381	394.66	-449.76	32.822	285.73	-397.93	61.073	336.48	-805.6	573.17	157.99	-732.43	491.63	134.05	-804.58	482.34	170.75	-741	586.68	125.93	-760.37	414.07	139.12	-722.52	395.88	272.99	-934.3	363.02	168.91	-958.91	254.64	174.66	-992.04	319.47	190.12	-909.76	307.23	154.52	-1062.2	221.21	200.79	-1045.5	212.8	280.49	-1108.3	260.58	237.33	-1120.5	249.67	277.27	-1138	242.59	218.29	-1088.8	83.169	201.87	-1047.7	86.708	302.93	-1016.6	36.964	259.05	-795.59	1372.3	330.5	-868.13	1119.4	325.54
